<svg width="60" height="60" viewBox="0 0 60 60" fill="none" xmlns="http://www.w3.org/2000/svg">
<g clip-path="url(#clip0_296_880)">
<path d="M2.5 15H57.5C58.163 15 58.7989 14.7366 59.2678 14.2678C59.7366 13.7989 60 13.163 60 12.5C60 11.837 59.7366 11.2011 59.2678 10.7322C58.7989 10.2634 58.163 10 57.5 10H2.5C1.83696 10 1.20107 10.2634 0.732233 10.7322C0.263392 11.2011 0 11.837 0 12.5C0 13.163 0.263392 13.7989 0.732233 14.2678C1.20107 14.7366 1.83696 15 2.5 15Z" fill="black"/>
<path d="M12.5 22.5C11.837 22.5 11.2011 22.7634 10.7322 23.2322C10.2634 23.7011 10 24.337 10 25C10 25.663 10.2634 26.2989 10.7322 26.7678C11.2011 27.2366 11.837 27.5 12.5 27.5H47.5C48.163 27.5 48.7989 27.2366 49.2678 26.7678C49.7366 26.2989 50 25.663 50 25C50 24.337 49.7366 23.7011 49.2678 23.2322C48.7989 22.7634 48.163 22.5 47.5 22.5H12.5Z" fill="black"/>
<path d="M47.5 47.5H12.5C11.837 47.5 11.2011 47.7634 10.7322 48.2322C10.2634 48.7011 10 49.337 10 50C10 50.663 10.2634 51.2989 10.7322 51.7678C11.2011 52.2366 11.837 52.5 12.5 52.5H47.5C48.163 52.5 48.7989 52.2366 49.2678 51.7678C49.7366 51.2989 50 50.663 50 50C50 49.337 49.7366 48.7011 49.2678 48.2322C48.7989 47.7634 48.163 47.5 47.5 47.5Z" fill="black"/>
<path d="M57.5 35H2.5C1.83696 35 1.20107 35.2634 0.732233 35.7322C0.263392 36.2011 0 36.837 0 37.5C0 38.163 0.263392 38.7989 0.732233 39.2678C1.20107 39.7366 1.83696 40 2.5 40H57.5C58.163 40 58.7989 39.7366 59.2678 39.2678C59.7366 38.7989 60 38.163 60 37.5C60 36.837 59.7366 36.2011 59.2678 35.7322C58.7989 35.2634 58.163 35 57.5 35Z" fill="black"/>
</g>
<defs>
<clipPath id="clip0_296_880">
<rect width="60" height="60" fill="white"/>
</clipPath>
</defs>
</svg>
