<svg width="60" height="60" viewBox="0 0 60 60" fill="none" xmlns="http://www.w3.org/2000/svg">
<path d="M48.75 5H11.25C5.0475 5 0 10.0475 0 16.25V41.25C0 47.4525 5.0475 52.5 11.25 52.5H48.75C54.9525 52.5 60 47.4525 60 41.25V16.25C60 10.0475 54.9525 5 48.75 5ZM2.5 22.5H15V35H2.5V22.5ZM17.5 22.5H57.5V35H17.5V22.5ZM57.5 16.25V20H17.5V7.5H48.75C53.575 7.5 57.5 11.425 57.5 16.25ZM11.25 7.5H15V20H2.5V16.25C2.5 11.425 6.425 7.5 11.25 7.5ZM2.5 41.25V37.5H15V50H11.25C6.425 50 2.5 46.075 2.5 41.25ZM48.75 50H17.5V37.5H57.5V41.25C57.5 46.075 53.575 50 48.75 50Z" fill="black"/>
</svg>
