<svg width="60" height="60" viewBox="0 0 60 60" fill="none" xmlns="http://www.w3.org/2000/svg">
<g clip-path="url(#clip0_296_849)">
<path d="M0 60H25V35H0V60ZM5 40H20V55H5V40ZM60 13.75C60 6.17 53.83 0 46.25 0C38.67 0 32.5 6.17 32.5 13.75C32.5 21.33 38.67 27.5 46.25 27.5C53.83 27.5 60 21.33 60 13.75ZM37.5 13.75C37.5 8.925 41.425 5 46.25 5C51.075 5 55 8.925 55 13.75C55 18.575 51.075 22.5 46.25 22.5C41.425 22.5 37.5 18.575 37.5 13.75ZM13.405 5H5V0H17.5C20.2575 0 22.5 2.2425 22.5 5V17.5H17.5V8.3375C9.8025 12.75 5 20.9 5 30H0C0 19.725 5.11 10.4725 13.405 5ZM46.595 55H55V60H42.5C39.7425 60 37.5 57.7575 37.5 55V42.5H42.5V51.665C50.1975 47.2525 55 39.1025 55 30H60C60 40.2725 54.8925 49.53 46.595 55Z" fill="#1E2431"/>
</g>
<defs>
<clipPath id="clip0_296_849">
<rect width="60" height="60" fill="white"/>
</clipPath>
</defs>
</svg>
