<svg width="60" height="60" viewBox="0 0 60 60" fill="none" xmlns="http://www.w3.org/2000/svg">
<path d="M45 15C44.5312 14.5314 43.8954 14.2681 43.2325 14.2681C42.5696 14.2681 41.9339 14.5314 41.465 15L30 26.465L18.535 15C18.0662 14.5314 17.4304 14.2681 16.7675 14.2681C16.1046 14.2681 15.4689 14.5314 15 15C14.5314 15.4689 14.2681 16.1046 14.2681 16.7675C14.2681 17.4304 14.5314 18.0662 15 18.535L26.465 30L15 41.465C14.5314 41.9339 14.2681 42.5696 14.2681 43.2325C14.2681 43.8954 14.5314 44.5312 15 45C15.4689 45.4687 16.1046 45.732 16.7675 45.732C17.4304 45.732 18.0662 45.4687 18.535 45L30 33.535L41.465 45C41.9339 45.4687 42.5696 45.732 43.2325 45.732C43.8954 45.732 44.5312 45.4687 45 45C45.4687 44.5312 45.732 43.8954 45.732 43.2325C45.732 42.5696 45.4687 41.9339 45 41.465L33.535 30L45 18.535C45.4687 18.0662 45.732 17.4304 45.732 16.7675C45.732 16.1046 45.4687 15.4689 45 15Z" fill="black"/>
</svg>
