<svg width="60" height="60" viewBox="0 0 60 60" fill="none" xmlns="http://www.w3.org/2000/svg">
<g clip-path="url(#clip0_216_466)">
<path d="M40.0001 20C39.5313 19.5314 38.8955 19.2681 38.2326 19.2681C37.5697 19.2681 36.9339 19.5314 36.4651 20L30.0001 26.465L23.5351 20C23.0636 19.5446 22.4321 19.2927 21.7766 19.2983C21.1211 19.304 20.4941 19.567 20.0306 20.0305C19.5671 20.494 19.3041 21.121 19.2984 21.7765C19.2927 22.432 19.5447 23.0635 20.0001 23.535L26.4651 30L20.0001 36.465C19.5447 36.9365 19.2927 37.568 19.2984 38.2235C19.3041 38.879 19.5671 39.5061 20.0306 39.9696C20.4941 40.4331 21.1211 40.696 21.7766 40.7017C22.4321 40.7074 23.0636 40.4554 23.5351 40L30.0001 33.535L36.4651 40C36.9366 40.4554 37.5681 40.7074 38.2236 40.7017C38.8791 40.696 39.5061 40.4331 39.9697 39.9696C40.4332 39.5061 40.6961 38.879 40.7018 38.2235C40.7075 37.568 40.4555 36.9365 40.0001 36.465L33.5351 30L40.0001 23.535C40.4688 23.0662 40.7321 22.4304 40.7321 21.7675C40.7321 21.1046 40.4688 20.4689 40.0001 20Z" fill="black"/>
<path d="M30 0C24.0666 0 18.2664 1.75947 13.3329 5.05591C8.39943 8.35236 4.55426 13.0377 2.28363 18.5195C0.0129986 24.0013 -0.581102 30.0333 0.576455 35.8527C1.73401 41.6721 4.59123 47.0176 8.78681 51.2132C12.9824 55.4088 18.3279 58.266 24.1473 59.4236C29.9667 60.5811 35.9987 59.987 41.4805 57.7164C46.9623 55.4458 51.6477 51.6006 54.9441 46.6671C58.2405 41.7336 60 35.9334 60 30C59.9914 22.0461 56.8279 14.4205 51.2037 8.7963C45.5795 3.17207 37.9539 0.0086027 30 0ZM30 55C25.0555 55 20.222 53.5338 16.1108 50.7867C11.9995 48.0397 8.79522 44.1352 6.90303 39.5671C5.01083 34.9989 4.51575 29.9723 5.48038 25.1227C6.44501 20.2732 8.82603 15.8186 12.3223 12.3223C15.8187 8.82602 20.2732 6.445 25.1228 5.48037C29.9723 4.51574 34.9989 5.01082 39.5671 6.90301C44.1353 8.7952 48.0397 11.9995 50.7868 16.1107C53.5338 20.222 55 25.0555 55 30C54.9927 36.6282 52.3565 42.9828 47.6696 47.6696C42.9828 52.3565 36.6282 54.9927 30 55Z" fill="black"/>
</g>
<defs>
<clipPath id="clip0_216_466">
<rect width="60" height="60" fill="white"/>
</clipPath>
</defs>
</svg>
