<svg width="60" height="60" viewBox="0 0 60 60" fill="none" xmlns="http://www.w3.org/2000/svg">
<g clip-path="url(#clip0_273_387)">
<path d="M57.0727 22.93L47.3752 13.2325C46.9037 12.7771 46.2721 12.5252 45.6167 12.5309C44.9612 12.5366 44.3341 12.7995 43.8706 13.263C43.4071 13.7265 43.1442 14.3535 43.1385 15.009C43.1328 15.6645 43.3848 16.296 43.8402 16.7675L53.5377 26.465C53.8258 26.7589 54.0776 27.0862 54.2877 27.44C54.2502 27.44 54.2202 27.42 54.1827 27.42L14.9727 27.5C14.3096 27.5 13.6737 27.7634 13.2049 28.2323C12.736 28.7011 12.4727 29.337 12.4727 30C12.4727 30.6631 12.736 31.299 13.2049 31.7678C13.6737 32.2366 14.3096 32.5 14.9727 32.5L54.1677 32.42C54.2377 32.42 54.2952 32.385 54.3627 32.38C54.1409 32.8029 53.8597 33.1919 53.5277 33.535L43.8302 43.2325C43.5914 43.4632 43.4009 43.739 43.2699 44.044C43.1389 44.349 43.0699 44.6771 43.067 45.009C43.0641 45.341 43.1274 45.6702 43.2531 45.9774C43.3788 46.2847 43.5644 46.5638 43.7992 46.7985C44.0339 47.0333 44.313 47.2189 44.6203 47.3446C44.9275 47.4703 45.2567 47.5336 45.5887 47.5307C45.9206 47.5278 46.2487 47.4588 46.5537 47.3278C46.8587 47.1968 47.1345 47.0063 47.3652 46.7675L57.0627 37.07C58.9374 35.1948 59.9905 32.6517 59.9905 30C59.9905 27.3484 58.9374 24.8053 57.0627 22.93H57.0727Z" fill="black"/>
<path d="M17.5 55H12.5C10.5109 55 8.60322 54.2098 7.1967 52.8033C5.79018 51.3968 5 49.4891 5 47.5V12.5C5 10.5109 5.79018 8.60322 7.1967 7.1967C8.60322 5.79018 10.5109 5 12.5 5H17.5C18.163 5 18.7989 4.73661 19.2678 4.26777C19.7366 3.79893 20 3.16304 20 2.5C20 1.83696 19.7366 1.20107 19.2678 0.732233C18.7989 0.263392 18.163 0 17.5 0L12.5 0C9.18601 0.00396964 6.00889 1.3222 3.66555 3.66555C1.3222 6.00889 0.00396964 9.18601 0 12.5L0 47.5C0.00396964 50.814 1.3222 53.9911 3.66555 56.3345C6.00889 58.6778 9.18601 59.996 12.5 60H17.5C18.163 60 18.7989 59.7366 19.2678 59.2678C19.7366 58.7989 20 58.163 20 57.5C20 56.837 19.7366 56.2011 19.2678 55.7322C18.7989 55.2634 18.163 55 17.5 55Z" fill="black"/>
</g>
<defs>
<clipPath id="clip0_273_387">
<rect width="60" height="60" fill="white"/>
</clipPath>
</defs>
</svg>
