<svg width="60" height="60" viewBox="0 0 60 60" fill="none" xmlns="http://www.w3.org/2000/svg">
<g clip-path="url(#clip0_117_302)">
<path d="M47.5 33.75V46.25C47.5 53.8325 41.3325 60 33.75 60H13.75C6.1675 60 0 53.8325 0 46.25V26.25C0 18.6675 6.1675 12.5 13.75 12.5H26.25C28.3225 12.5 30 14.1775 30 16.25C30 18.3225 28.3225 20 26.25 20H13.75C10.305 20 7.5 22.805 7.5 26.25V46.25C7.5 49.695 10.305 52.5 13.75 52.5H33.75C37.195 52.5 40 49.695 40 46.25V33.75C40 31.6775 41.6775 30 43.75 30C45.8225 30 47.5 31.6775 47.5 33.75ZM51.25 0H38.75C36.6775 0 35 1.6775 35 3.75C35 5.8225 36.6775 7.5 38.75 7.5H47.1975L21.0975 33.5975C19.6325 35.06 19.6325 37.4375 21.0975 38.9C21.83 39.6325 22.79 39.9975 23.75 39.9975C24.71 39.9975 25.67 39.6325 26.4025 38.9L52.5 12.8025V21.25C52.5 23.3225 54.1775 25 56.25 25C58.3225 25 60 23.3225 60 21.25V8.75C60 3.925 56.075 0 51.25 0Z" fill="black"/>
</g>
<defs>
<clipPath id="clip0_117_302">
<rect width="60" height="60" fill="white"/>
</clipPath>
</defs>
</svg>
