<svg width="60" height="60" viewBox="0 0 60 60" fill="none" xmlns="http://www.w3.org/2000/svg">
<g clip-path="url(#clip0_270_738)">
<path d="M58.1774 23.5476C55.9205 19.8519 53.0737 16.5507 49.7499 13.7751L56.7499 6.77511C57.2053 6.3036 57.4573 5.6721 57.4516 5.01661C57.4459 4.36111 57.183 3.73408 56.7194 3.27056C56.2559 2.80704 55.6289 2.54412 54.9734 2.53842C54.3179 2.53273 53.6864 2.78471 53.2149 3.24011L45.6024 10.8626C40.8834 8.05966 35.4884 6.59877 29.9999 6.63761C14.5224 6.63761 5.70238 17.2326 1.82238 23.5476C0.623704 25.4864 -0.0112305 27.7207 -0.0112305 30.0001C-0.0112305 32.2795 0.623704 34.5138 1.82238 36.4526C4.07927 40.1483 6.92611 43.4495 10.2499 46.2251L3.24988 53.2251C3.01111 53.4557 2.82065 53.7316 2.68963 54.0366C2.55861 54.3416 2.48964 54.6697 2.48676 55.0016C2.48387 55.3336 2.54713 55.6628 2.67283 55.97C2.79853 56.2772 2.98416 56.5564 3.2189 56.7911C3.45363 57.0258 3.73276 57.2115 4.04 57.3372C4.34724 57.4629 4.67644 57.5261 5.00839 57.5232C5.34034 57.5204 5.66839 57.4514 5.9734 57.3204C6.27841 57.1893 6.55427 56.9989 6.78488 56.7601L14.4149 49.1301C19.1281 51.9326 24.5166 53.396 29.9999 53.3626C45.4774 53.3626 54.2974 42.7676 58.1774 36.4526C59.3761 34.5138 60.011 32.2795 60.011 30.0001C60.011 27.7207 59.3761 25.4864 58.1774 23.5476ZM6.08238 33.8351C5.37022 32.6827 4.99301 31.3548 4.99301 30.0001C4.99301 28.6454 5.37022 27.3175 6.08238 26.1651C9.41738 20.7501 16.9549 11.6376 29.9999 11.6376C34.1506 11.6144 38.243 12.6147 41.9149 14.5501L36.8824 19.5826C34.4822 17.9891 31.6047 17.2751 28.738 17.5617C25.8713 17.8483 23.192 19.118 21.1549 21.1551C19.1177 23.1923 17.8481 25.8715 17.5615 28.7382C17.2749 31.6049 17.9889 34.4824 19.5824 36.8826L13.8074 42.6576C10.7451 40.1819 8.13198 37.1975 6.08238 33.8351ZM37.4999 30.0001C37.4999 31.9892 36.7097 33.8969 35.3032 35.3034C33.8967 36.7099 31.989 37.5001 29.9999 37.5001C28.8862 37.4958 27.7879 37.2394 26.7874 36.7501L36.7499 26.7876C37.2392 27.7881 37.4956 28.8864 37.4999 30.0001ZM22.4999 30.0001C22.4999 28.011 23.2901 26.1033 24.6966 24.6968C26.1031 23.2903 28.0108 22.5001 29.9999 22.5001C31.1136 22.5044 32.2119 22.7608 33.2124 23.2501L23.2499 33.2126C22.7606 32.2121 22.5042 31.1138 22.4999 30.0001ZM53.9174 33.8351C50.5824 39.2501 43.0449 48.3626 29.9999 48.3626C25.8492 48.3859 21.7568 47.3855 18.0849 45.4501L23.1174 40.4176C25.5176 42.0111 28.3951 42.7251 31.2618 42.4385C34.1285 42.1519 36.8077 40.8823 38.8449 38.8451C40.882 36.8079 42.1516 34.1287 42.4383 31.262C42.7249 28.3953 42.0109 25.5178 40.4174 23.1176L46.1924 17.3426C49.2546 19.8183 51.8678 22.8027 53.9174 26.1651C54.6295 27.3175 55.0068 28.6454 55.0068 30.0001C55.0068 31.3548 54.6295 32.6827 53.9174 33.8351Z" fill="black"/>
</g>
<defs>
<clipPath id="clip0_270_738">
<rect width="60" height="60" fill="white"/>
</clipPath>
</defs>
</svg>
