<svg width="60" height="60" viewBox="0 0 60 60" fill="none" xmlns="http://www.w3.org/2000/svg">
<g clip-path="url(#clip0_270_740)">
<path d="M58.1774 23.5475C54.2999 17.2325 45.4799 6.63745 29.9999 6.63745C14.5199 6.63745 5.69988 17.2325 1.82238 23.5475C0.623704 25.4862 -0.0112305 27.7206 -0.0112305 30C-0.0112305 32.2793 0.623704 34.5137 1.82238 36.4525C5.69988 42.7675 14.5199 53.3624 29.9999 53.3624C45.4799 53.3624 54.2999 42.7675 58.1774 36.4525C59.3761 34.5137 60.011 32.2793 60.011 30C60.011 27.7206 59.3761 25.4862 58.1774 23.5475ZM53.9149 33.835C50.5849 39.25 43.0474 48.3624 29.9999 48.3624C16.9524 48.3624 9.41488 39.25 6.08488 33.835C5.37272 32.6826 4.99551 31.3546 4.99551 30C4.99551 28.6453 5.37272 27.3173 6.08488 26.165C9.41488 20.75 16.9524 11.6375 29.9999 11.6375C43.0474 11.6375 50.5849 20.74 53.9149 26.165C54.627 27.3173 55.0043 28.6453 55.0043 30C55.0043 31.3546 54.627 32.6826 53.9149 33.835Z" fill="black"/>
<path d="M30 17.5C27.5277 17.5 25.111 18.2331 23.0554 19.6066C20.9998 20.9801 19.3976 22.9324 18.4515 25.2165C17.5054 27.5005 17.2579 30.0139 17.7402 32.4386C18.2225 34.8634 19.413 37.0907 21.1612 38.8388C22.9093 40.587 25.1366 41.7775 27.5614 42.2598C29.9861 42.7421 32.4995 42.4946 34.7835 41.5485C37.0676 40.6024 39.0199 39.0002 40.3934 36.9446C41.7669 34.889 42.5 32.4723 42.5 30C42.496 26.686 41.1778 23.5089 38.8345 21.1655C36.4911 18.8222 33.314 17.504 30 17.5ZM30 37.5C28.5166 37.5 27.0666 37.0601 25.8332 36.236C24.5999 35.4119 23.6386 34.2406 23.0709 32.8701C22.5033 31.4997 22.3547 29.9917 22.6441 28.5368C22.9335 27.082 23.6478 25.7456 24.6967 24.6967C25.7456 23.6478 27.082 22.9335 28.5368 22.6441C29.9917 22.3547 31.4997 22.5032 32.8701 23.0709C34.2406 23.6386 35.4119 24.5999 36.236 25.8332C37.0601 27.0666 37.5 28.5166 37.5 30C37.5 31.9891 36.7098 33.8968 35.3033 35.3033C33.8968 36.7098 31.9891 37.5 30 37.5Z" fill="black"/>
</g>
<defs>
<clipPath id="clip0_270_740">
<rect width="60" height="60" fill="white"/>
</clipPath>
</defs>
</svg>
