<svg width="60" height="60" viewBox="0 0 60 60" fill="none" xmlns="http://www.w3.org/2000/svg">
<g clip-path="url(#clip0_174_408)">
<path d="M47.0325 25C47.805 25 48.535 24.6425 49.0075 24.0325C49.48 23.4225 49.645 22.6275 49.455 21.88C48.6775 18.8375 47.0925 16.0575 44.8725 13.8375L36.16 5.125C32.855 1.82 28.46 0 23.785 0H12.4975C5.6075 0 0 5.6075 0 12.5V47.5C0 54.3925 5.6075 60 12.5 60H20C21.38 60 22.5 58.88 22.5 57.5C22.5 56.12 21.38 55 20 55H12.5C8.365 55 5 51.635 5 47.5V12.5C5 8.365 8.365 5 12.5 5H23.7875C24.195 5 24.6 5.02 25 5.0575V17.5C25 21.635 28.365 25 32.5 25H47.0325ZM30 17.5V6.6475C30.9475 7.1925 31.83 7.8675 32.625 8.6625L41.3375 17.375C42.1225 18.16 42.795 19.045 43.345 20H32.5C31.1225 20 30 18.8775 30 17.5ZM57.805 29.6975C54.97 26.8625 50.03 26.8625 47.1975 29.6975L30.43 46.465C28.5425 48.3525 27.5 50.865 27.5 53.5375V57.5025C27.5 58.8825 28.62 60.0025 30 60.0025H33.965C36.6375 60.0025 39.1475 58.96 41.035 57.0725L57.8025 40.305C59.22 38.8875 60 37.005 60 35C60 32.995 59.22 31.1125 57.805 29.6975ZM54.2675 36.7675L37.4975 53.535C36.555 54.48 35.3 55 33.9625 55H32.4975V53.535C32.4975 52.2 33.0175 50.945 33.9625 50L50.7325 33.2325C51.675 32.2875 53.3225 32.2875 54.2675 33.2325C54.74 33.7025 55 34.33 55 35C55 35.67 54.74 36.295 54.2675 36.7675Z" fill="black"/>
</g>
<defs>
<clipPath id="clip0_174_408">
<rect width="60" height="60" fill="white"/>
</clipPath>
</defs>
</svg>
