<svg width="60" height="60" viewBox="0 0 60 60" fill="none" xmlns="http://www.w3.org/2000/svg">
<g clip-path="url(#clip0_178_446)">
<path d="M46.65 52.25C45.625 51.325 44.025 51.425 43.125 52.475C41.7 54.1 39.65 55.025 37.5 55.025H12.5C8.375 55.025 5 51.65 5 47.525V12.5C5 8.375 8.375 5 12.5 5H23.775C24.175 5 24.6 5 25 5.05V17.5C25 21.625 28.375 25 32.5 25H47.025C47.8 25 48.525 24.65 49 24.025C49.475 23.4 49.625 22.625 49.45 21.875C48.675 18.825 47.1 16.05 44.875 13.825L36.175 5.125C32.875 1.825 28.475 0 23.8 0H12.5C5.6 0 0 5.6 0 12.5V47.5C0 54.4 5.6 60 12.5 60H37.5C41.075 60 44.5 58.45 46.875 55.775C47.8 54.75 47.7 53.15 46.65 52.25ZM30 6.65C30.95 7.2 31.825 7.875 32.625 8.675L41.325 17.375C42.1 18.15 42.775 19.05 43.325 20H32.475C31.1 20 29.975 18.875 29.975 17.5V6.65H30ZM57.825 45.225L53.8 49.25C53.3 49.75 52.675 49.975 52.025 49.975C51.375 49.975 50.75 49.725 50.25 49.25C49.275 48.275 49.275 46.7 50.25 45.725L53.475 42.5H34.975C33.6 42.5 32.475 41.375 32.475 40C32.475 38.625 33.6 37.5 34.975 37.5H53.475L50.25 34.275C49.275 33.3 49.275 31.725 50.25 30.75C51.225 29.775 52.8 29.775 53.775 30.75L57.8 34.775C60.675 37.65 60.675 42.35 57.8 45.25L57.825 45.225Z" fill="black"/>
</g>
<defs>
<clipPath id="clip0_178_446">
<rect width="60" height="60" fill="white"/>
</clipPath>
</defs>
</svg>
