<svg width="60" height="60" viewBox="0 0 60 60" fill="none" xmlns="http://www.w3.org/2000/svg">
<g clip-path="url(#clip0_99_376)">
<path d="M30 0C24.0666 0 18.2664 1.75947 13.3329 5.05591C8.39943 8.35236 4.55426 13.0377 2.28363 18.5195C0.0129986 24.0013 -0.581102 30.0333 0.576455 35.8527C1.73401 41.6721 4.59123 47.0176 8.78681 51.2132C12.9824 55.4088 18.3279 58.266 24.1473 59.4236C29.9667 60.5811 35.9987 59.987 41.4805 57.7164C46.9623 55.4458 51.6477 51.6006 54.9441 46.6671C58.2405 41.7336 60 35.9334 60 30C59.9914 22.0461 56.8279 14.4205 51.2037 8.7963C45.5795 3.17207 37.9539 0.0086027 30 0ZM51.6175 17.5H43.565C41.7624 13.3225 39.389 9.41521 36.5125 5.89C42.8787 7.62232 48.3058 11.7937 51.6175 17.5ZM41.25 30C41.2295 32.5453 40.8284 35.0733 40.06 37.5H19.94C19.1716 35.0733 18.7705 32.5453 18.75 30C18.7705 27.4547 19.1716 24.9267 19.94 22.5H40.06C40.8284 24.9267 41.2295 27.4547 41.25 30ZM21.945 42.5H38.055C35.9331 46.6893 33.2204 50.5521 30 53.97C26.7784 50.5531 24.0656 46.6901 21.945 42.5ZM21.945 17.5C24.0669 13.3107 26.7796 9.4479 30 6.03C33.2216 9.44693 35.9344 13.3099 38.055 17.5H21.945ZM23.5 5.89C20.6192 9.41446 18.2415 13.3217 16.435 17.5H8.38251C11.6972 11.7911 17.1292 7.61939 23.5 5.89ZM6.15251 22.5H14.75C14.1019 24.9479 13.7659 27.4678 13.75 30C13.7659 32.5322 14.1019 35.0521 14.75 37.5H6.15251C4.61586 32.6181 4.61586 27.3819 6.15251 22.5ZM8.38251 42.5H16.435C18.2415 46.6783 20.6192 50.5855 23.5 54.11C17.1292 52.3806 11.6972 48.2089 8.38251 42.5ZM36.5125 54.11C39.389 50.5848 41.7624 46.6775 43.565 42.5H51.6175C48.3058 48.2063 42.8787 52.3777 36.5125 54.11ZM53.8475 37.5H45.25C45.8981 35.0521 46.2341 32.5322 46.25 30C46.2341 27.4678 45.8981 24.9479 45.25 22.5H53.8425C55.3792 27.3819 55.3792 32.6181 53.8425 37.5H53.8475Z" fill="black"/>
</g>
<defs>
<clipPath id="clip0_99_376">
<rect width="60" height="60" fill="white"/>
</clipPath>
</defs>
</svg>
