<svg width="129" height="29" viewBox="0 0 129 29" fill="none" xmlns="http://www.w3.org/2000/svg">
<path d="M7.43182 23H2.31818V5.54545H7.73864C9.40341 5.54545 10.8267 5.89205 12.0085 6.58523C13.196 7.27841 14.1051 8.27273 14.7358 9.56818C15.3665 10.8636 15.6818 12.4176 15.6818 14.2301C15.6818 16.0597 15.358 17.6307 14.7102 18.9432C14.0682 20.25 13.1307 21.2528 11.8977 21.9517C10.6705 22.6506 9.18182 23 7.43182 23ZM3.91193 21.5682H7.33807C8.83807 21.5682 10.0938 21.2727 11.1051 20.6818C12.1165 20.0909 12.875 19.2472 13.3807 18.1506C13.8864 17.054 14.1392 15.7472 14.1392 14.2301C14.1335 12.7244 13.8835 11.429 13.3892 10.3438C12.9006 9.25852 12.1733 8.42614 11.2074 7.84659C10.2472 7.26704 9.05966 6.97727 7.64489 6.97727H3.91193V21.5682ZM19.5447 23V5.54545H29.6697V6.97727H21.1385V13.5483H29.1328V14.9801H21.1385V21.5682H29.8402V23H19.5447ZM33.7947 23V5.54545H43.8942V6.97727H35.3885V13.5483H43.1016V14.9801H35.3885V23H33.7947ZM49.451 5.54545V23H47.8572V5.54545H49.451ZM67.6854 5.54545V23H66.1342L55.8217 8.38352H55.6854V23H54.0916V5.54545H55.6342L65.9808 20.179H66.1172V5.54545H67.6854ZM72.326 23V5.54545H82.451V6.97727H73.9197V13.5483H81.9141V14.9801H73.9197V21.5682H82.6214V23H72.326Z" fill="#727E95"/>
<path d="M106.298 5.54545H109.989V16.8807C109.989 18.1534 109.685 19.267 109.077 20.2216C108.474 21.1761 107.631 21.9205 106.545 22.4545C105.46 22.983 104.196 23.2472 102.753 23.2472C101.304 23.2472 100.037 22.983 98.9517 22.4545C97.8665 21.9205 97.0227 21.1761 96.4205 20.2216C95.8182 19.267 95.517 18.1534 95.517 16.8807V5.54545H99.2074V16.5653C99.2074 17.2301 99.3523 17.821 99.642 18.3381C99.9375 18.8551 100.352 19.2614 100.886 19.5568C101.42 19.8523 102.043 20 102.753 20C103.469 20 104.091 19.8523 104.619 19.5568C105.153 19.2614 105.565 18.8551 105.855 18.3381C106.151 17.821 106.298 17.2301 106.298 16.5653V5.54545ZM116.485 5.54545L120.005 11.4943H120.141L123.678 5.54545H127.846L122.519 14.2727L127.965 23H123.721L120.141 17.0426H120.005L116.425 23H112.198L117.661 14.2727L112.3 5.54545H116.485Z" fill="url(#paint0_linear_198_574)"/>
<defs>
<linearGradient id="paint0_linear_198_574" x1="94" y1="14.5" x2="129" y2="14.5" gradientUnits="userSpaceOnUse">
<stop stop-color="#F44369"/>
<stop offset="1" stop-color="#3E3B92"/>
</linearGradient>
</defs>
</svg>
