<svg width="169" height="39" viewBox="0 0 169 39" fill="none" xmlns="http://www.w3.org/2000/svg">
<path d="M9.90909 31H3.09091V7.72727H10.3182C12.5379 7.72727 14.4356 8.18939 16.0114 9.11364C17.5947 10.0379 18.8068 11.3636 19.6477 13.0909C20.4886 14.8182 20.9091 16.8902 20.9091 19.3068C20.9091 21.7462 20.4773 23.8409 19.6136 25.5909C18.7576 27.3333 17.5076 28.6705 15.8636 29.6023C14.2273 30.5341 12.2424 31 9.90909 31ZM5.21591 29.0909H9.78409C11.7841 29.0909 13.4583 28.697 14.8068 27.9091C16.1553 27.1212 17.1667 25.9962 17.8409 24.5341C18.5152 23.072 18.8523 21.3295 18.8523 19.3068C18.8447 17.2992 18.5114 15.572 17.8523 14.125C17.2008 12.678 16.2311 11.5682 14.9432 10.7955C13.6629 10.0227 12.0795 9.63636 10.1932 9.63636H5.21591V29.0909ZM26.0597 31V7.72727H39.5597V9.63636H28.1847V18.3977H38.8438V20.3068H28.1847V29.0909H39.7869V31H26.0597ZM45.0597 31V7.72727H58.5256V9.63636H47.1847V18.3977H57.4688V20.3068H47.1847V31H45.0597ZM65.9347 7.72727V31H63.8097V7.72727H65.9347ZM90.2472 7.72727V31H88.179L74.429 11.5114H74.2472V31H72.1222V7.72727H74.179L87.9744 27.2386H88.1562V7.72727H90.2472ZM96.4347 31V7.72727H109.935V9.63636H98.5597V18.3977H109.219V20.3068H98.5597V29.0909H110.162V31H96.4347Z" fill="#727E95"/>
<path d="M138.398 7.72727H143.318V22.8409C143.318 24.5379 142.913 26.0227 142.102 27.2955C141.299 28.5682 140.174 29.5606 138.727 30.2727C137.28 30.9773 135.595 31.3295 133.67 31.3295C131.739 31.3295 130.049 30.9773 128.602 30.2727C127.155 29.5606 126.03 28.5682 125.227 27.2955C124.424 26.0227 124.023 24.5379 124.023 22.8409V7.72727H128.943V22.4205C128.943 23.3068 129.136 24.0947 129.523 24.7841C129.917 25.4735 130.47 26.0152 131.182 26.4091C131.894 26.803 132.723 27 133.67 27C134.625 27 135.455 26.803 136.159 26.4091C136.871 26.0152 137.42 25.4735 137.807 24.7841C138.201 24.0947 138.398 23.3068 138.398 22.4205V7.72727ZM151.98 7.72727L156.673 15.6591H156.855L161.571 7.72727H167.128L160.026 19.3636L167.287 31H161.628L156.855 23.0568H156.673L151.901 31H146.264L153.548 19.3636L146.401 7.72727H151.98Z" fill="url(#paint0_linear_135_429)"/>
<defs>
<linearGradient id="paint0_linear_135_429" x1="122" y1="19.5" x2="169" y2="19.5" gradientUnits="userSpaceOnUse">
<stop stop-color="#F44369"/>
<stop offset="1" stop-color="#3E3B92"/>
</linearGradient>
</defs>
</svg>
