<svg width="60" height="60" viewBox="0 0 60 60" fill="none" xmlns="http://www.w3.org/2000/svg">
<g clip-path="url(#clip0_164_475)">
<path d="M2.93 47.7974C1.05451 49.6724 0.000566374 52.2155 0 54.8674L0 59.9999H5.1325C7.78445 59.9994 10.3276 58.9454 12.2025 57.0699L45.56 23.7124L36.2875 14.4399L2.93 47.7974Z" fill="black"/>
<path d="M57.8623 2.13742C57.2535 1.52801 56.5306 1.04456 55.7348 0.714711C54.9391 0.384864 54.0862 0.215088 53.2248 0.215088C52.3634 0.215088 51.5104 0.384864 50.7147 0.714711C49.919 1.04456 49.196 1.52801 48.5873 2.13742L39.8223 10.9049L49.0948 20.1774L57.8623 11.4124C58.4717 10.8036 58.9551 10.0807 59.285 9.28499C59.6148 8.48925 59.7846 7.63631 59.7846 6.77492C59.7846 5.91353 59.6148 5.06059 59.285 4.26485C58.9551 3.46912 58.4717 2.7462 57.8623 2.13742Z" fill="black"/>
</g>
<defs>
<clipPath id="clip0_164_475">
<rect width="60" height="60" fill="white"/>
</clipPath>
</defs>
</svg>
