<svg width="60" height="60" viewBox="0 0 60 60" fill="none" xmlns="http://www.w3.org/2000/svg">
<path d="M55 10H44.7475C43.585 4.3025 38.5375 0 32.5 0H27.5C21.465 0 16.415 4.3025 15.2525 10H5C3.62 10 2.5 11.1175 2.5 12.5C2.5 13.8825 3.62 15 5 15H7.15L10.39 48.6975C11.01 55.1425 16.36 60 22.8325 60H37.15C43.6325 60 48.9825 55.1325 49.595 48.68L52.785 15H54.9975C56.3775 15 57.4975 13.8825 57.4975 12.5C57.4975 11.1175 56.38 10 55 10ZM27.5 5H32.5C35.755 5 38.505 7.0975 39.54 10H20.4625C21.4975 7.0975 24.2475 5 27.5025 5H27.5ZM39.2675 40.7325C40.245 41.71 40.245 43.29 39.2675 44.2675C38.78 44.755 38.14 45 37.5 45C36.86 45 36.22 44.755 35.7325 44.2675L30 38.535L24.2675 44.2675C23.78 44.755 23.14 45 22.5 45C21.86 45 21.22 44.755 20.7325 44.2675C19.755 43.29 19.755 41.71 20.7325 40.7325L26.465 35L20.7325 29.2675C19.755 28.29 19.755 26.71 20.7325 25.7325C21.71 24.755 23.29 24.755 24.2675 25.7325L30 31.465L35.7325 25.7325C36.71 24.755 38.29 24.755 39.2675 25.7325C40.245 26.71 40.245 28.29 39.2675 29.2675L33.535 35L39.2675 40.7325Z" fill="black"/>
</svg>
