<svg width="60" height="60" viewBox="0 0 60 60" fill="none" xmlns="http://www.w3.org/2000/svg">
<path d="M12.5 27.5C5.6075 27.5 0 21.8925 0 15C0 8.1075 5.6075 2.5 12.5 2.5C19.3925 2.5 25 8.1075 25 15C25 21.8925 19.3925 27.5 12.5 27.5ZM12.5 7.5C8.365 7.5 5 10.865 5 15C5 19.135 8.365 22.5 12.5 22.5C16.635 22.5 20 19.135 20 15C20 10.865 16.635 7.5 12.5 7.5ZM12.5 57.5C5.6075 57.5 0 51.8925 0 45C0 38.1075 5.6075 32.5 12.5 32.5C19.3925 32.5 25 38.1075 25 45C25 51.8925 19.3925 57.5 12.5 57.5ZM12.5 37.5C8.365 37.5 5 40.865 5 45C5 49.135 8.365 52.5 12.5 52.5C16.635 52.5 20 49.135 20 45C20 40.865 16.635 37.5 12.5 37.5ZM60 12.5H32.5V17.5H60V12.5ZM60 42.5H32.5V47.5H60V42.5ZM12.5 18.75C14.57 18.75 16.25 17.07 16.25 15C16.25 12.93 14.57 11.25 12.5 11.25C10.43 11.25 8.75 12.93 8.75 15C8.75 17.07 10.43 18.75 12.5 18.75Z" fill="black"/>
</svg>
