<svg width="60" height="60" viewBox="0 0 60 60" fill="none" xmlns="http://www.w3.org/2000/svg">
<g clip-path="url(#clip0_275_416)">
<path d="M59.2674 55.7324L44.3449 40.8099C48.4115 35.8364 50.4109 29.4902 49.9296 23.0838C49.4482 16.6775 46.523 10.7013 41.7589 6.39124C36.9948 2.08122 30.7564 -0.232826 24.334 -0.0722466C17.9117 0.0883329 11.7967 2.71125 7.25398 7.25398C2.71125 11.7967 0.0883329 17.9117 -0.0722466 24.334C-0.232826 30.7564 2.08122 36.9948 6.39124 41.7589C10.7013 46.523 16.6775 49.4482 23.0838 49.9296C29.4902 50.4109 35.8364 48.4115 40.8099 44.3449L55.7324 59.2674C56.2039 59.7228 56.8355 59.9748 57.4909 59.9691C58.1464 59.9634 58.7735 59.7005 59.237 59.237C59.7005 58.7735 59.9634 58.1464 59.9691 57.4909C59.9748 56.8355 59.7228 56.2039 59.2674 55.7324ZM24.9999 44.9999C21.0443 44.9999 17.1775 43.827 13.8885 41.6293C10.5996 39.4317 8.0361 36.3081 6.52235 32.6536C5.0086 28.9991 4.61253 24.9778 5.38424 21.0981C6.15594 17.2185 8.06076 13.6549 10.8578 10.8578C13.6549 8.06076 17.2185 6.15594 21.0981 5.38424C24.9778 4.61253 28.9991 5.0086 32.6536 6.52235C36.3081 8.0361 39.4317 10.5996 41.6293 13.8885C43.827 17.1775 44.9999 21.0443 44.9999 24.9999C44.994 30.3024 42.8849 35.3861 39.1355 39.1355C35.3861 42.8849 30.3024 44.994 24.9999 44.9999Z" fill="black"/>
</g>
<defs>
<clipPath id="clip0_275_416">
<rect width="60" height="60" fill="white"/>
</clipPath>
</defs>
</svg>
