<svg width="60" height="60" viewBox="0 0 60 60" fill="none" xmlns="http://www.w3.org/2000/svg">
<path d="M26.5001 31.775C26.2658 31.5426 26.0798 31.2661 25.9529 30.9615C25.826 30.6568 25.7606 30.3301 25.7606 30C25.7606 29.67 25.826 29.3432 25.9529 29.0386C26.0798 28.7339 26.2658 28.4574 26.5001 28.225L37.9751 16.775C38.2095 16.5426 38.3954 16.2661 38.5224 15.9615C38.6493 15.6568 38.7146 15.3301 38.7146 15C38.7146 14.67 38.6493 14.3432 38.5224 14.0386C38.3954 13.7339 38.2095 13.4574 37.9751 13.225C37.5067 12.7594 36.8731 12.498 36.2126 12.498C35.5522 12.498 34.9185 12.7594 34.4501 13.225L22.9751 24.7C21.5706 26.1063 20.7817 28.0125 20.7817 30C20.7817 31.9875 21.5706 33.8938 22.9751 35.3L34.4501 46.775C34.9158 47.2369 35.5443 47.4973 36.2001 47.5C36.5292 47.5019 36.8553 47.4389 37.1599 47.3145C37.4645 47.19 37.7415 47.0067 37.9751 46.775C38.2095 46.5426 38.3954 46.2661 38.5224 45.9615C38.6493 45.6568 38.7146 45.3301 38.7146 45C38.7146 44.67 38.6493 44.3432 38.5224 44.0386C38.3954 43.7339 38.2095 43.4574 37.9751 43.225L26.5001 31.775Z" fill="black"/>
</svg>
