<svg width="60" height="60" viewBox="0 0 60 60" fill="none" xmlns="http://www.w3.org/2000/svg">
<g clip-path="url(#clip0_307_447)">
<path d="M27.5175 6.44492L27.5 45.0399C27.5 45.703 27.7634 46.3388 28.2322 46.8077C28.7011 47.2765 29.337 47.5399 30 47.5399C30.6631 47.5399 31.2989 47.2765 31.7678 46.8077C32.2366 46.3388 32.5 45.703 32.5 45.0399L32.5175 6.48742L39.7975 13.7699C40.2663 14.2386 40.9021 14.5019 41.565 14.5019C42.2279 14.5019 42.8637 14.2386 43.3325 13.7699C43.8012 13.3011 44.0645 12.6653 44.0645 12.0024C44.0645 11.3395 43.8012 10.7037 43.3325 10.2349L35.305 2.19742C34.6085 1.50047 33.7815 0.947598 32.8713 0.570387C31.961 0.193176 30.9853 -0.000976563 30 -0.000976562C29.0147 -0.000976563 28.039 0.193176 27.1288 0.570387C26.2185 0.947598 25.3915 1.50047 24.695 2.19742L16.6675 10.2274C16.1988 10.6962 15.9355 11.332 15.9355 11.9949C15.9355 12.6578 16.1988 13.2936 16.6675 13.7624C17.1363 14.2311 17.7721 14.4944 18.435 14.4944C19.0979 14.4944 19.7337 14.2311 20.2025 13.7624L27.5175 6.44492Z" fill="black"/>
<path d="M55 42.5V52.5C55 53.163 54.7366 53.7989 54.2678 54.2678C53.7989 54.7366 53.163 55 52.5 55H7.5C6.83696 55 6.20107 54.7366 5.73223 54.2678C5.26339 53.7989 5 53.163 5 52.5V42.5C5 41.837 4.73661 41.2011 4.26777 40.7322C3.79893 40.2634 3.16304 40 2.5 40C1.83696 40 1.20107 40.2634 0.732233 40.7322C0.263392 41.2011 0 41.837 0 42.5L0 52.5C0 54.4891 0.790176 56.3968 2.1967 57.8033C3.60322 59.2098 5.51088 60 7.5 60H52.5C54.4891 60 56.3968 59.2098 57.8033 57.8033C59.2098 56.3968 60 54.4891 60 52.5V42.5C60 41.837 59.7366 41.2011 59.2678 40.7322C58.7989 40.2634 58.163 40 57.5 40C56.837 40 56.2011 40.2634 55.7322 40.7322C55.2634 41.2011 55 41.837 55 42.5Z" fill="black"/>
</g>
<defs>
<clipPath id="clip0_307_447">
<rect width="60" height="60" fill="white"/>
</clipPath>
</defs>
</svg>
