<svg width="60" height="60" viewBox="0 0 60 60" fill="none" xmlns="http://www.w3.org/2000/svg">
<g clip-path="url(#clip0_127_285)">
<path d="M30 25C25.865 25 22.5 28.365 22.5 32.5C22.5 36.635 25.865 40 30 40C34.135 40 37.5 36.635 37.5 32.5C37.5 28.365 34.135 25 30 25ZM30 37.5C27.2425 37.5 25 35.2575 25 32.5C25 29.7425 27.2425 27.5 30 27.5C32.7575 27.5 35 29.7425 35 32.5C35 35.2575 32.7575 37.5 30 37.5ZM50.24 13.4725L41.53 4.76C38.4575 1.69 34.3775 0 30.0375 0H16.25C10.0475 0 5 5.0475 5 11.25V48.75C5 54.9525 10.0475 60 16.25 60H43.75C49.9525 60 55 54.9525 55 48.75V24.9625C55 20.62 53.3075 16.54 50.24 13.4725ZM48.4725 15.24C49.8475 16.615 50.87 18.2375 51.5525 20H38.75C36.6825 20 35 18.3175 35 16.25V3.45C36.76 4.1325 38.385 5.155 39.76 6.5275L48.4725 15.24ZM20 57.5C20 51.985 24.485 47.5 30 47.5C35.515 47.5 40 51.985 40 57.5H20ZM52.5 48.75C52.5 53.575 48.575 57.5 43.75 57.5H42.5C42.5 50.6075 36.8925 45 30 45C23.1075 45 17.5 50.6075 17.5 57.5H16.25C11.425 57.5 7.5 53.575 7.5 48.75V11.25C7.5 6.425 11.425 2.5 16.25 2.5H30.0375C30.875 2.5 31.695 2.595 32.5 2.74V16.25C32.5 19.695 35.3025 22.5 38.75 22.5H52.26C52.405 23.3075 52.5 24.1275 52.5 24.9625V48.75Z" fill="black"/>
</g>
<defs>
<clipPath id="clip0_127_285">
<rect width="60" height="60" fill="white"/>
</clipPath>
</defs>
</svg>
